<?xml version="1.0" encoding="UTF-8"?>
<svg xmlns="http://www.w3.org/2000/svg" xmlns:xlink="http://www.w3.org/1999/xlink" width="35px" height="35px" viewBox="0 0 35 35" version="1.1">
<defs>
<filter id="alpha" filterUnits="objectBoundingBox" x="0%" y="0%" width="100%" height="100%">
  <feColorMatrix type="matrix" in="SourceGraphic" values="0 0 0 0 1 0 0 0 0 1 0 0 0 0 1 0 0 0 1 0"/>
</filter>
<mask id="mask0">
  <g filter="url(#alpha)">
<rect x="0" y="0" width="35" height="35" style="fill:rgb(0%,0%,0%);fill-opacity:0.996078;stroke:none;"/>
  </g>
</mask>
<clipPath id="clip1">
  <rect x="0" y="0" width="35" height="35"/>
</clipPath>
<g id="surface5" clip-path="url(#clip1)">
<path style=" stroke:none;fill-rule:evenodd;fill:rgb(56.078431%,84.313725%,99.607843%);fill-opacity:1;" d="M 15.960938 -0.0351562 C 16.941406 -0.0351562 17.921875 -0.0351562 18.902344 -0.0351562 C 25.085938 0.671875 29.746094 3.699219 32.882812 9.058594 C 34.03125 11.230469 34.726562 13.53125 34.964844 15.960938 C 34.964844 16.988281 34.964844 18.011719 34.964844 19.039062 C 34.828125 20.222656 34.578125 21.386719 34.214844 22.523438 C 34.21875 22.496094 34.207031 22.472656 34.179688 22.457031 C 33.152344 23.183594 32.09375 23.242188 31 22.625 C 30.460938 22.085938 29.847656 21.65625 29.15625 21.328125 C 27.136719 20.625 25.402344 21.058594 23.960938 22.625 C 23.335938 23.011719 22.675781 23.136719 21.976562 23.003906 C 22.101562 17.875 22.160156 12.726562 22.148438 7.554688 C 22.417969 6.632812 23.03125 6.132812 23.992188 6.050781 C 24.988281 6.144531 25.617188 6.667969 25.875 7.621094 C 25.875 8.078125 25.875 8.535156 25.875 8.988281 C 26.445312 8.988281 27.011719 8.988281 27.582031 8.988281 C 27.605469 8.496094 27.582031 8.019531 27.515625 7.554688 C 27.125 5.617188 25.941406 4.566406 23.960938 4.410156 C 22.167969 4.550781 21.015625 5.484375 20.507812 7.210938 C 20.472656 8.578125 20.460938 9.945312 20.472656 11.3125 C 17.921875 11.3125 15.371094 11.3125 12.816406 11.3125 C 12.804688 10.058594 12.816406 8.808594 12.851562 7.554688 C 13.359375 6.234375 14.28125 5.8125 15.621094 6.289062 C 16.558594 6.945312 16.898438 7.84375 16.644531 8.988281 C 17.191406 8.988281 17.738281 8.988281 18.285156 8.988281 C 18.535156 6.738281 17.601562 5.246094 15.484375 4.511719 C 13.578125 4.261719 12.222656 5 11.414062 6.734375 C 11.320312 6.976562 11.25 7.226562 11.210938 7.484375 C 11.175781 12.566406 11.164062 17.648438 11.175781 22.730469 C 10.785156 22.484375 10.417969 22.199219 10.082031 21.875 C 7.832031 20.515625 5.78125 20.765625 3.929688 22.625 C 2.730469 23.308594 1.613281 23.207031 0.582031 22.320312 C 0.3125 21.207031 0.109375 20.089844 -0.0351562 18.96875 C -0.0351562 17.96875 -0.0351562 16.964844 -0.0351562 15.960938 C 0.761719 9.371094 4.109375 4.574219 10.015625 1.570312 C 11.914062 0.703125 13.898438 0.167969 15.960938 -0.0351562 Z M 15.960938 -0.0351562 "/>
</g>
<mask id="mask1">
  <g filter="url(#alpha)">
<rect x="0" y="0" width="35" height="35" style="fill:rgb(0%,0%,0%);fill-opacity:0.996078;stroke:none;"/>
  </g>
</mask>
<clipPath id="clip2">
  <rect x="0" y="0" width="35" height="35"/>
</clipPath>
<g id="surface8" clip-path="url(#clip2)">
<path style=" stroke:none;fill-rule:evenodd;fill:rgb(0%,56.470588%,100%);fill-opacity:1;" d="M 33.394531 24.644531 C 33.054688 25.460938 32.644531 26.234375 32.164062 26.96875 C 31.332031 26.859375 30.648438 26.484375 30.113281 25.839844 C 28.75 24.914062 27.289062 24.730469 25.738281 25.292969 C 25.105469 25.621094 24.539062 26.03125 24.027344 26.523438 C 23.074219 27.128906 22.09375 27.171875 21.089844 26.660156 C 20.546875 26.160156 19.953125 25.726562 19.3125 25.359375 C 17.324219 24.558594 15.59375 24.921875 14.117188 26.453125 C 12.605469 27.316406 11.261719 27.109375 10.082031 25.839844 C 8.71875 24.925781 7.257812 24.742188 5.707031 25.292969 C 5.445312 25.414062 5.195312 25.550781 4.957031 25.703125 C 4.429688 26.25 3.816406 26.660156 3.109375 26.933594 C 2.976562 26.96875 2.839844 26.980469 2.699219 26.96875 C 2.214844 26.203125 1.78125 25.40625 1.402344 24.574219 C 2.128906 24.667969 2.859375 24.65625 3.589844 24.539062 C 4.507812 24.230469 5.304688 23.726562 5.980469 23.039062 C 6.996094 22.519531 8 22.542969 8.988281 23.105469 C 10.574219 24.777344 12.421875 25.140625 14.527344 24.199219 C 15.121094 23.71875 15.738281 23.261719 16.371094 22.832031 C 17.28125 22.535156 18.144531 22.625 18.96875 23.105469 C 20.617188 24.796875 22.507812 25.136719 24.644531 24.132812 C 25.097656 23.765625 25.554688 23.402344 26.011719 23.039062 C 26.96875 22.535156 27.925781 22.535156 28.882812 23.039062 C 29.28125 23.339844 29.667969 23.660156 30.042969 23.992188 C 31.074219 24.644531 32.191406 24.859375 33.394531 24.644531 Z M 33.394531 24.644531 "/>
</g>
<mask id="mask2">
  <g filter="url(#alpha)">
<rect x="0" y="0" width="35" height="35" style="fill:rgb(0%,0%,0%);fill-opacity:0.992157;stroke:none;"/>
  </g>
</mask>
<clipPath id="clip3">
  <rect x="0" y="0" width="35" height="35"/>
</clipPath>
<g id="surface11" clip-path="url(#clip3)">
<path style=" stroke:none;fill-rule:evenodd;fill:rgb(0%,56.470588%,100%);fill-opacity:1;" d="M 31.070312 28.472656 C 27.910156 32.285156 23.855469 34.449219 18.902344 34.964844 C 17.898438 34.964844 16.894531 34.964844 15.894531 34.964844 C 10.96875 34.429688 6.933594 32.265625 3.792969 28.472656 C 4.554688 28.125 5.238281 27.65625 5.84375 27.070312 C 6.886719 26.480469 7.9375 26.480469 8.988281 27.070312 C 9.5 27.5625 10.066406 27.972656 10.699219 28.300781 C 12.25 28.863281 13.710938 28.679688 15.074219 27.753906 C 15.992188 26.660156 17.128906 26.339844 18.492188 26.796875 C 19.128906 27.253906 19.765625 27.707031 20.40625 28.164062 C 20.761719 28.328125 21.125 28.464844 21.5 28.574219 C 22.859375 28.792969 24.089844 28.496094 25.191406 27.6875 C 26.1875 26.5625 27.371094 26.3125 28.746094 26.933594 C 29.234375 27.28125 29.714844 27.644531 30.179688 28.027344 C 30.484375 28.179688 30.78125 28.328125 31.070312 28.472656 Z M 31.070312 28.472656 "/>
</g>
</defs>
<g id="surface1">
<use xlink:href="#surface5" mask="url(#mask0)"/>
<path style=" stroke:none;fill-rule:evenodd;fill:rgb(98.431373%,98.431373%,99.215686%);fill-opacity:1;" d="M 27.515625 7.554688 C 27.515625 8.007812 27.515625 8.464844 27.515625 8.921875 C 26.992188 8.921875 26.464844 8.921875 25.941406 8.921875 C 25.964844 8.476562 25.941406 8.042969 25.875 7.621094 C 25.617188 6.667969 24.988281 6.144531 23.992188 6.050781 C 23.03125 6.132812 22.417969 6.632812 22.148438 7.554688 C 22.160156 12.726562 22.101562 17.875 21.976562 23.003906 C 21.375 22.90625 20.871094 22.632812 20.472656 22.183594 C 20.472656 20.859375 20.472656 19.539062 20.472656 18.21875 C 17.921875 18.21875 15.371094 18.21875 12.816406 18.21875 C 12.816406 19.8125 12.816406 21.40625 12.816406 23.003906 C 12.238281 23.097656 11.691406 23.003906 11.175781 22.730469 C 11.164062 17.648438 11.175781 12.566406 11.210938 7.484375 C 11.25 7.226562 11.320312 6.976562 11.414062 6.734375 C 12.222656 5 13.578125 4.261719 15.484375 4.511719 C 17.601562 5.246094 18.535156 6.738281 18.285156 8.988281 C 17.738281 8.988281 17.191406 8.988281 16.644531 8.988281 C 16.898438 7.84375 16.558594 6.945312 15.621094 6.289062 C 14.28125 5.8125 13.359375 6.234375 12.851562 7.554688 C 12.816406 8.808594 12.804688 10.058594 12.816406 11.3125 C 15.371094 11.3125 17.921875 11.3125 20.472656 11.3125 C 20.460938 9.945312 20.472656 8.578125 20.507812 7.210938 C 21.015625 5.484375 22.167969 4.550781 23.960938 4.410156 C 25.941406 4.566406 27.125 5.617188 27.515625 7.554688 Z M 27.515625 7.554688 "/>
<path style=" stroke:none;fill-rule:evenodd;fill:rgb(77.647059%,91.372549%,99.607843%);fill-opacity:1;" d="M 27.515625 7.554688 C 27.582031 8.019531 27.605469 8.496094 27.582031 8.988281 C 27.011719 8.988281 26.445312 8.988281 25.875 8.988281 C 25.875 8.535156 25.875 8.078125 25.875 7.621094 C 25.941406 8.042969 25.964844 8.476562 25.941406 8.921875 C 26.464844 8.921875 26.992188 8.921875 27.515625 8.921875 C 27.515625 8.464844 27.515625 8.007812 27.515625 7.554688 Z M 27.515625 7.554688 "/>
<path style=" stroke:none;fill-rule:evenodd;fill:rgb(65.490196%,87.45098%,99.607843%);fill-opacity:1;" d="M 12.816406 13.023438 C 15.359375 12.953125 17.910156 12.929688 20.472656 12.953125 C 20.496094 14.171875 20.472656 15.382812 20.40625 16.578125 C 20.40625 15.390625 20.40625 14.207031 20.40625 13.023438 C 17.875 13.023438 15.347656 13.023438 12.816406 13.023438 Z M 12.816406 13.023438 "/>
<path style=" stroke:none;fill-rule:evenodd;fill:rgb(56.078431%,84.313725%,100%);fill-opacity:1;" d="M 12.816406 13.023438 C 15.347656 13.023438 17.875 13.023438 20.40625 13.023438 C 20.40625 14.207031 20.40625 15.390625 20.40625 16.578125 C 17.875 16.578125 15.347656 16.578125 12.816406 16.578125 C 12.816406 15.390625 12.816406 14.207031 12.816406 13.023438 Z M 12.816406 13.023438 "/>
<path style=" stroke:none;fill-rule:evenodd;fill:rgb(56.078431%,83.921569%,100%);fill-opacity:1;" d="M 20.472656 22.183594 C 18.84375 20.867188 17.089844 20.671875 15.210938 21.601562 C 14.800781 21.894531 14.414062 22.214844 14.046875 22.558594 C 13.667969 22.796875 13.257812 22.945312 12.816406 23.003906 C 12.816406 21.40625 12.816406 19.8125 12.816406 18.21875 C 15.371094 18.21875 17.921875 18.21875 20.472656 18.21875 C 20.472656 19.539062 20.472656 20.859375 20.472656 22.183594 Z M 20.472656 22.183594 "/>
<path style=" stroke:none;fill-rule:evenodd;fill:rgb(28.235294%,70.588235%,100%);fill-opacity:1;" d="M 11.175781 22.730469 C 11.691406 23.003906 12.238281 23.097656 12.816406 23.003906 C 13.257812 22.945312 13.667969 22.796875 14.046875 22.558594 C 14.414062 22.214844 14.800781 21.894531 15.210938 21.601562 C 17.089844 20.671875 18.84375 20.867188 20.472656 22.183594 C 20.871094 22.632812 21.375 22.90625 21.976562 23.003906 C 22.675781 23.136719 23.335938 23.011719 23.960938 22.625 C 25.402344 21.058594 27.136719 20.625 29.15625 21.328125 C 29.847656 21.65625 30.460938 22.085938 31 22.625 C 32.09375 23.242188 33.152344 23.183594 34.179688 22.457031 C 34.207031 22.472656 34.21875 22.496094 34.214844 22.523438 C 34.070312 23.289062 33.796875 23.996094 33.394531 24.644531 C 32.191406 24.859375 31.074219 24.644531 30.042969 23.992188 C 29.667969 23.660156 29.28125 23.339844 28.882812 23.039062 C 27.925781 22.535156 26.96875 22.535156 26.011719 23.039062 C 25.554688 23.402344 25.097656 23.765625 24.644531 24.132812 C 22.507812 25.136719 20.617188 24.796875 18.96875 23.105469 C 18.144531 22.625 17.28125 22.535156 16.371094 22.832031 C 15.738281 23.261719 15.121094 23.71875 14.527344 24.199219 C 12.421875 25.140625 10.574219 24.777344 8.988281 23.105469 C 8 22.542969 6.996094 22.519531 5.980469 23.039062 C 5.304688 23.726562 4.507812 24.230469 3.589844 24.539062 C 2.859375 24.65625 2.128906 24.667969 1.402344 24.574219 C 1.074219 23.84375 0.800781 23.09375 0.582031 22.320312 C 1.613281 23.207031 2.730469 23.308594 3.929688 22.625 C 5.78125 20.765625 7.832031 20.515625 10.082031 21.875 C 10.417969 22.199219 10.785156 22.484375 11.175781 22.730469 Z M 11.175781 22.730469 "/>
<use xlink:href="#surface8" mask="url(#mask1)"/>
<path style=" stroke:none;fill-rule:evenodd;fill:rgb(27.843137%,70.588235%,100%);fill-opacity:1;" d="M 32.164062 26.96875 C 31.867188 27.519531 31.5 28.019531 31.070312 28.472656 C 30.78125 28.328125 30.484375 28.179688 30.179688 28.027344 C 29.714844 27.644531 29.234375 27.28125 28.746094 26.933594 C 27.371094 26.3125 26.1875 26.5625 25.191406 27.6875 C 24.089844 28.496094 22.859375 28.792969 21.5 28.574219 C 21.125 28.464844 20.761719 28.328125 20.40625 28.164062 C 19.765625 27.707031 19.128906 27.253906 18.492188 26.796875 C 17.128906 26.339844 15.992188 26.660156 15.074219 27.753906 C 13.710938 28.679688 12.25 28.863281 10.699219 28.300781 C 10.066406 27.972656 9.5 27.5625 8.988281 27.070312 C 7.9375 26.480469 6.886719 26.480469 5.84375 27.070312 C 5.238281 27.65625 4.554688 28.125 3.792969 28.472656 C 3.398438 27.996094 3.03125 27.496094 2.699219 26.96875 C 2.839844 26.980469 2.976562 26.96875 3.109375 26.933594 C 3.816406 26.660156 4.429688 26.25 4.957031 25.703125 C 5.195312 25.550781 5.445312 25.414062 5.707031 25.292969 C 7.257812 24.742188 8.71875 24.925781 10.082031 25.839844 C 11.261719 27.109375 12.605469 27.316406 14.117188 26.453125 C 15.59375 24.921875 17.324219 24.558594 19.3125 25.359375 C 19.953125 25.726562 20.546875 26.160156 21.089844 26.660156 C 22.09375 27.171875 23.074219 27.128906 24.027344 26.523438 C 24.539062 26.03125 25.105469 25.621094 25.738281 25.292969 C 27.289062 24.730469 28.75 24.914062 30.113281 25.839844 C 30.648438 26.484375 31.332031 26.859375 32.164062 26.96875 Z M 32.164062 26.96875 "/>
<use xlink:href="#surface11" mask="url(#mask2)"/>
</g>
</svg>
